<?xml version="1.0" encoding="UTF-8"?>
<svg xmlns="http://www.w3.org/2000/svg" width="0" height="0" class="sprites">
  <!-- Icona carburante -->
  <symbol id="it-fuel" viewBox="0 0 24 24">
    <path d="M19.77,2.93L16.31,6.39C15.93,6.77 15.93,7.4 16.31,7.78L18.22,9.69C18.6,10.07 19.23,10.07 19.61,9.69L23.07,6.23C24.62,9.68 23.78,14.27 20.32,17.73C17.79,20.26 14.41,21.29 11.28,20.83L2.69,12.24C2.23,9.11 3.26,5.73 5.79,3.2C9.25,0.26 13.84,-0.58 17.29,0.97L13.83,4.43C13.45,4.81 13.45,5.44 13.83,5.82L15.74,7.73C16.12,8.11 16.75,8.11 17.13,7.73L20.59,4.27C21.18,5.12 21.63,6.1 21.93,7.17L19.77,9.33C19,10.1 19,11.35 19.77,12.12L21.7,14.05C21.43,14.97 21.01,15.84 20.45,16.67L18.5,14.72C17.73,13.95 16.48,13.95 15.71,14.72L13.22,17.21C12.45,17.98 12.45,19.23 13.22,20L14.34,21.12C9.96,21.82 5.34,19.96 2.46,16.29C1.36,15 0.57,13.56 0.11,12.08L9.92,21.89C13.27,22.27 16.97,21.04 19.77,18.24C24.09,13.92 24.6,7.01 21.34,2.96L19.77,4.53L18.53,3.29L19.77,2.93Z" />
  </symbol>
  
  <!-- Icona ristorante -->
  <symbol id="it-restaurant" viewBox="0 0 24 24">
    <path d="M11,9H9V2H7V9H5V2H3V9C3,11.12 4.66,12.84 6.75,12.97V22H9.25V12.97C11.34,12.84 13,11.12 13,9V2H11V9M16,6V14H18.5V22H21V2C18.24,2 16,4.24 16,6Z" />
  </symbol>
  
  <!-- Icona carta di credito -->
  <symbol id="it-card" viewBox="0 0 24 24">
    <path d="M20,8H4V6H20M20,18H4V12H20M20,4H4C2.89,4 2,4.89 2,6V18A2,2 0 0,0 4,20H20A2,2 0 0,0 22,18V6C22,4.89 21.1,4 20,4Z" />
  </symbol>
  
  <!-- Icona impostazioni -->
  <symbol id="it-settings" viewBox="0 0 24 24">
    <path d="M12,15.5A3.5,3.5 0 0,1 8.5,12A3.5,3.5 0 0,1 12,8.5A3.5,3.5 0 0,1 15.5,12A3.5,3.5 0 0,1 12,15.5M19.43,12.97C19.47,12.65 19.5,12.33 19.5,12C19.5,11.67 19.47,11.34 19.43,11L21.54,9.37C21.73,9.22 21.78,8.95 21.66,8.73L19.66,5.27C19.54,5.05 19.27,4.96 19.05,5.05L16.56,6.05C16.04,5.66 15.5,5.32 14.87,5.07L14.5,2.42C14.46,2.18 14.25,2 14,2H10C9.75,2 9.54,2.18 9.5,2.42L9.13,5.07C8.5,5.32 7.96,5.66 7.44,6.05L4.95,5.05C4.73,4.96 4.46,5.05 4.34,5.27L2.34,8.73C2.21,8.95 2.27,9.22 2.46,9.37L4.57,11C4.53,11.34 4.5,11.67 4.5,12C4.5,12.33 4.53,12.65 4.57,12.97L2.46,14.63C2.27,14.78 2.21,15.05 2.34,15.27L4.34,18.73C4.46,18.95 4.73,19.03 4.95,18.95L7.44,17.94C7.96,18.34 8.5,18.68 9.13,18.93L9.5,21.58C9.54,21.82 9.75,22 10,22H14C14.25,22 14.46,21.82 14.5,21.58L14.87,18.93C15.5,18.67 16.04,18.34 16.56,17.94L19.05,18.95C19.27,19.03 19.54,18.95 19.66,18.73L21.66,15.27C21.78,15.05 21.73,14.78 21.54,14.63L19.43,12.97Z" />
  </symbol>
  
  <!-- Icona marcatore mappa -->
  <symbol id="it-map-marker" viewBox="0 0 24 24">
    <path d="M12,11.5A2.5,2.5 0 0,1 9.5,9A2.5,2.5 0 0,1 12,6.5A2.5,2.5 0 0,1 14.5,9A2.5,2.5 0 0,1 12,11.5M12,2A7,7 0 0,0 5,9C5,14.25 12,22 12,22C12,22 19,14.25 19,9A7,7 0 0,0 12,2Z" />
  </symbol>
  
  <!-- Icona più elementi -->
  <symbol id="it-more-items" viewBox="0 0 24 24">
    <path d="M16,12A2,2 0 0,1 18,10A2,2 0 0,1 20,12A2,2 0 0,1 18,14A2,2 0 0,1 16,12M10,12A2,2 0 0,1 12,10A2,2 0 0,1 14,12A2,2 0 0,1 12,14A2,2 0 0,1 10,12M4,12A2,2 0 0,1 6,10A2,2 0 0,1 8,12A2,2 0 0,1 6,14A2,2 0 0,1 4,12Z" />
  </symbol>
  
  <!-- Icona file -->
  <symbol id="it-file" viewBox="0 0 24 24">
    <path d="M13,9V3.5L18.5,9M6,2C4.89,2 4,2.89 4,4V20A2,2 0 0,0 6,22H18A2,2 0 0,0 20,20V8L14,2H6Z" />
  </symbol>
</svg>
